<svg width="20" height="20" viewBox="0 0 20 20" fill="none" xmlns="http://www.w3.org/2000/svg">
<path d="M2.6825 3.5675C2.62439 3.50939 2.57829 3.4404 2.54685 3.36448C2.5154 3.28855 2.49921 3.20718 2.49921 3.125C2.49921 3.04282 2.5154 2.96144 2.54685 2.88552C2.57829 2.80959 2.62439 2.74061 2.6825 2.6825C2.74061 2.62439 2.8096 2.57829 2.88552 2.54684C2.96144 2.51539 3.04282 2.49921 3.125 2.49921C3.20718 2.49921 3.28855 2.51539 3.36448 2.54684C3.4404 2.57829 3.50939 2.62439 3.5675 2.6825L10 9.11625L16.4325 2.6825C16.4906 2.62439 16.5596 2.57829 16.6355 2.54684C16.7114 2.51539 16.7928 2.49921 16.875 2.49921C16.9572 2.49921 17.0386 2.51539 17.1145 2.54684C17.1904 2.57829 17.2594 2.62439 17.3175 2.6825C17.3756 2.74061 17.4217 2.80959 17.4532 2.88552C17.4846 2.96144 17.5008 3.04282 17.5008 3.125C17.5008 3.20718 17.4846 3.28855 17.4532 3.36448C17.4217 3.4404 17.3756 3.50939 17.3175 3.5675L10.8837 10L17.3175 16.4325C17.3756 16.4906 17.4217 16.5596 17.4532 16.6355C17.4846 16.7114 17.5008 16.7928 17.5008 16.875C17.5008 16.9572 17.4846 17.0386 17.4532 17.1145C17.4217 17.1904 17.3756 17.2594 17.3175 17.3175C17.2594 17.3756 17.1904 17.4217 17.1145 17.4531C17.0386 17.4846 16.9572 17.5008 16.875 17.5008C16.7928 17.5008 16.7114 17.4846 16.6355 17.4531C16.5596 17.4217 16.4906 17.3756 16.4325 17.3175L10 10.8837L3.5675 17.3175C3.50939 17.3756 3.4404 17.4217 3.36448 17.4531C3.28855 17.4846 3.20718 17.5008 3.125 17.5008C3.04282 17.5008 2.96144 17.4846 2.88552 17.4531C2.8096 17.4217 2.74061 17.3756 2.6825 17.3175C2.62439 17.2594 2.57829 17.1904 2.54685 17.1145C2.5154 17.0386 2.49921 16.9572 2.49921 16.875C2.49921 16.7928 2.5154 16.7114 2.54685 16.6355C2.57829 16.5596 2.62439 16.4906 2.6825 16.4325L9.11625 10L2.6825 3.5675Z" fill="black"/>
</svg>
