<svg width="24" height="24" viewBox="0 0 24 24" fill="none" xmlns="http://www.w3.org/2000/svg">
<path d="M21 19V12.267C21 11.7245 20.8896 11.1876 20.6756 10.689C20.4616 10.1905 20.1483 9.74069 19.755 9.36701L13.378 3.31001C13.0063 2.9569 12.5132 2.76001 12.0005 2.76001C11.4878 2.76001 10.9947 2.9569 10.623 3.31001L4.245 9.36701C3.85165 9.74069 3.53844 10.1905 3.3244 10.689C3.11037 11.1876 3 11.7245 3 12.267V19C3 19.5304 3.21071 20.0392 3.58579 20.4142C3.96086 20.7893 4.46957 21 5 21H19C19.5304 21 20.0391 20.7893 20.4142 20.4142C20.7893 20.0392 21 19.5304 21 19Z" stroke="black" stroke-width="2" stroke-linecap="round" stroke-linejoin="round"/>
<path d="M9 15C9 14.4696 9.21071 13.9609 9.58579 13.5858C9.96086 13.2107 10.4696 13 11 13H13C13.5304 13 14.0391 13.2107 14.4142 13.5858C14.7893 13.9609 15 14.4696 15 15V21H9V15Z" stroke="black" stroke-width="2" stroke-linecap="round" stroke-linejoin="round"/>
</svg>
